<?xml version="1.0" encoding="UTF-8" standalone="no"?>
<!-- Created with Inkscape (http://www.inkscape.org/) -->

<svg
   version="1.1"
   id="svg1"
   width="840"
   height="613.33331"
   viewBox="0 0 840 613.33331"
   sodipodi:docname="trafo_bw.svg"
   inkscape:version="1.3.2 (091e20ef0f, 2023-11-25)"
   xmlns:inkscape="http://www.inkscape.org/namespaces/inkscape"
   xmlns:sodipodi="http://sodipodi.sourceforge.net/DTD/sodipodi-0.dtd"
   xmlns="http://www.w3.org/2000/svg"
   xmlns:svg="http://www.w3.org/2000/svg">
  <defs
     id="defs1">
    <clipPath
       clipPathUnits="userSpaceOnUse"
       id="clipPath2">
      <path
         d="M 0,2400 6300,4600 4900,0 Z"
         transform="translate(0,-2.5e-5)"
         id="path2" />
    </clipPath>
    <clipPath
       clipPathUnits="userSpaceOnUse"
       id="clipPath4">
      <path
         d="m 1700,1100 c 0,-165.684 -134.32,-300 -300,-300 -165.68,0 -300,134.316 -300,300 0,165.68 134.32,300 300,300 165.68,0 300,-134.32 300,-300 z M 1000,700 h 1700 v 800 H 1000 Z"
         transform="translate(0,-2.5e-5)"
         id="path4" />
    </clipPath>
    <clipPath
       clipPathUnits="userSpaceOnUse"
       id="clipPath6">
      <path
         d="m 1700,1100 c 0,-165.684 -134.32,-300 -300,-300 -165.68,0 -300,134.316 -300,300 0,165.68 134.32,300 300,300 165.68,0 300,-134.32 300,-300 z M 1000,700 h 1700 v 800 H 1000 Z"
         transform="translate(0,-2.5e-5)"
         id="path6" />
    </clipPath>
    <clipPath
       clipPathUnits="userSpaceOnUse"
       id="clipPath10">
      <path
         d="m 1700,3600 c 0,-165.68 -134.32,-300 -300,-300 -165.68,0 -300,134.32 -300,300 0,165.68 134.32,300 300,300 165.68,0 300,-134.32 300,-300 z m -700,-400 h 1700 v 800 H 1000 Z"
         transform="translate(0,-2.5e-5)"
         id="path10" />
    </clipPath>
    <clipPath
       clipPathUnits="userSpaceOnUse"
       id="clipPath12">
      <path
         d="m 1700,3600 c 0,-165.68 -134.32,-300 -300,-300 -165.68,0 -300,134.32 -300,300 0,165.68 134.32,300 300,300 165.68,0 300,-134.32 300,-300 z m -700,-400 h 1700 v 800 H 1000 Z"
         transform="translate(0,-2.5e-5)"
         id="path12" />
    </clipPath>
    <clipPath
       clipPathUnits="userSpaceOnUse"
       id="clipPath15">
      <path
         d="m 5300,1100 c 0,-165.684 134.32,-300 300,-300 165.68,0 300,134.316 300,300 0,165.68 -134.32,300 -300,300 -165.68,0 -300,-134.32 -300,-300 z M 6000,700 H 4300 v 800 h 1700 z"
         transform="translate(0,-2.5e-5)"
         id="path15" />
    </clipPath>
    <clipPath
       clipPathUnits="userSpaceOnUse"
       id="clipPath17">
      <path
         d="m 5300,1100 c 0,-165.684 134.32,-300 300,-300 165.68,0 300,134.316 300,300 0,165.68 -134.32,300 -300,300 -165.68,0 -300,-134.32 -300,-300 z M 6000,700 H 4300 v 800 h 1700 z"
         transform="translate(0,-2.5e-5)"
         id="path17" />
    </clipPath>
    <clipPath
       clipPathUnits="userSpaceOnUse"
       id="clipPath21">
      <path
         d="m 5300,3600 c 0,-165.68 134.32,-300 300,-300 165.68,0 300,134.32 300,300 0,165.68 -134.32,300 -300,300 -165.68,0 -300,-134.32 -300,-300 z m 700,-400 H 4300 v 800 h 1700 z"
         transform="translate(0,-2.5e-5)"
         id="path21" />
    </clipPath>
    <clipPath
       clipPathUnits="userSpaceOnUse"
       id="clipPath23">
      <path
         d="m 5300,3600 c 0,-165.68 134.32,-300 300,-300 165.68,0 300,134.32 300,300 0,165.68 -134.32,300 -300,300 -165.68,0 -300,-134.32 -300,-300 z m 700,-400 H 4300 v 800 h 1700 z"
         transform="translate(0,-2.5e-5)"
         id="path23" />
    </clipPath>
  </defs>
  <sodipodi:namedview
     id="namedview1"
     pagecolor="#505050"
     bordercolor="#ffffff"
     borderopacity="1"
     inkscape:showpageshadow="0"
     inkscape:pageopacity="0"
     inkscape:pagecheckerboard="1"
     inkscape:deskcolor="#d1d1d1"
     inkscape:zoom="1.5309524"
     inkscape:cx="420"
     inkscape:cy="306.67185"
     inkscape:window-width="2256"
     inkscape:window-height="1435"
     inkscape:window-x="0"
     inkscape:window-y="0"
     inkscape:window-maximized="1"
     inkscape:current-layer="g1">
    <inkscape:page
       x="0"
       y="0"
       inkscape:label="1"
       id="page1"
       width="840"
       height="613.33331"
       margin="0"
       bleed="0" />
  </sodipodi:namedview>
  <g
     id="g1"
     inkscape:groupmode="layer"
     inkscape:label="1">
    <path
       id="path1"
       d="M 0,0 H 6300 V 56 H 0 Z m 0,142 h 6300 v 56 H 0 Z m 0,142 h 6300 v 56 H 0 Z m 0,142 h 6300 v 56 H 0 Z m 0,142 h 6300 v 56 H 0 Z m 0,142 h 6300 v 56 H 0 Z m 0,142 h 6300 v 56 H 0 Z m 0,142 h 6300 v 56 H 0 Z m 0,142 h 6300 v 56 H 0 Z m 0,142 h 6300 v 56 H 0 Z m 0,142 h 6300 v 56 H 0 Z m 0,142 h 6300 v 56 H 0 Z m 0,142 h 6300 v 56 H 0 Z m 0,142 h 6300 v 56 H 0 Z m 0,142 h 6300 v 56 H 0 Z m 0,142 h 6300 v 56 H 0 Z m 0,142 h 6300 v 56 H 0 Z m 0,142 h 6300 v 56 H 0 Z m 0,142 h 6300 v 56 H 0 Z m 0,142 h 6300 v 56 H 0 Z m 0,142 h 6300 v 56 H 0 Z m 0,142 h 6300 v 56 H 0 Z m 0,142 h 6300 v 56 H 0 Z m 0,142 h 6300 v 56 H 0 Z m 0,142 h 6300 v 56 H 0 Z m 0,142 h 6300 v 56 H 0 Z m 0,142 h 6300 v 56 H 0 Z m 0,142 h 6300 v 56 H 0 Z m 0,142 h 6300 v 56 H 0 Z m 0,142 h 6300 v 56 H 0 Z m 0,142 h 6300 v 56 H 0 Z m 0,142 h 6300 v 56 H 0 Z m 0,142 h 6300 v 56 H 0"
       style="fill:#999999;fill-opacity:1;fill-rule:nonzero;stroke:none"
       transform="matrix(0.13333333,0,0,-0.13333333,0,613.33333)"
       clip-path="url(#clipPath2)" />
    <path
       id="path3"
       d="m 1800,1100 c 0,220.91 -179.09,400 -400,400 -220.91,0 -400,-179.09 -400,-400 0,-220.91 179.09,-400 400,-400 220.91,0 400,179.09 400,400"
       style="fill:#000000;fill-opacity:1;fill-rule:nonzero;stroke:none"
       transform="matrix(0.13333333,0,0,-0.13333333,0,613.33333)"
       clip-path="url(#clipPath4)" />
    <path
       id="path5"
       d="m 1500,800 h 1200 v 600 H 1500 Z"
       style="fill:#000000;fill-opacity:1;fill-rule:nonzero;stroke:none"
       transform="matrix(0.13333333,0,0,-0.13333333,0,613.33333)"
       clip-path="url(#clipPath6)" />
    <path
       id="path7"
       d="m 3000,1100 c 0,165.68 -134.32,300 -300,300 -165.68,0 -300,-134.32 -300,-300 0,-165.684 134.32,-300 300,-300 165.68,0 300,134.316 300,300"
       style="fill:#000000;fill-opacity:1;fill-rule:nonzero;stroke:none"
       transform="matrix(0.13333333,0,0,-0.13333333,0,613.33333)" />
    <path
       id="path8"
       d="M 3000,1100 V 3600 L 1700,3300 v 0 c 165.68,0 300,-134.32 300,-300 V 1700 c 0,-165.68 -134.32,-300 -300,-300"
       style="fill:#000000;fill-opacity:1;fill-rule:nonzero;stroke:none"
       transform="matrix(0.13333333,0,0,-0.13333333,0,613.33333)" />
    <path
       id="path9"
       d="m 1800,3600 c 0,220.91 -179.09,400 -400,400 -220.91,0 -400,-179.09 -400,-400 0,-220.91 179.09,-400 400,-400 220.91,0 400,179.09 400,400"
       style="fill:#000000;fill-opacity:1;fill-rule:nonzero;stroke:none"
       transform="matrix(0.13333333,0,0,-0.13333333,0,613.33333)"
       clip-path="url(#clipPath10)" />
    <path
       id="path11"
       d="m 1500,3300 h 1200 v 600 H 1500 Z"
       style="fill:#000000;fill-opacity:1;fill-rule:nonzero;stroke:none"
       transform="matrix(0.13333333,0,0,-0.13333333,0,613.33333)"
       clip-path="url(#clipPath12)" />
    <path
       id="path13"
       d="m 3000,3600 c 0,165.68 -134.32,300 -300,300 -165.68,0 -300,-134.32 -300,-300 0,-165.68 134.32,-300 300,-300 165.68,0 300,134.32 300,300"
       style="fill:#000000;fill-opacity:1;fill-rule:nonzero;stroke:none"
       transform="matrix(0.13333333,0,0,-0.13333333,0,613.33333)" />
    <path
       id="path14"
       d="m 5200,1100 c 0,220.91 179.09,400 400,400 220.91,0 400,-179.09 400,-400 0,-220.91 -179.09,-400 -400,-400 -220.91,0 -400,179.09 -400,400"
       style="fill:#000000;fill-opacity:1;fill-rule:nonzero;stroke:none"
       transform="matrix(0.13333333,0,0,-0.13333333,0,613.33333)"
       clip-path="url(#clipPath15)" />
    <path
       id="path16"
       d="m 4300,800 h 1200 v 600 H 4300 Z"
       style="fill:#000000;fill-opacity:1;fill-rule:nonzero;stroke:none"
       transform="matrix(0.13333333,0,0,-0.13333333,0,613.33333)"
       clip-path="url(#clipPath17)" />
    <path
       id="path18"
       d="m 4000,1100 c 0,165.68 134.32,300 300,300 165.68,0 300,-134.32 300,-300 0,-165.684 -134.32,-300 -300,-300 -165.68,0 -300,134.316 -300,300"
       style="fill:#000000;fill-opacity:1;fill-rule:nonzero;stroke:none"
       transform="matrix(0.13333333,0,0,-0.13333333,0,613.33333)" />
    <path
       id="path19"
       d="m 4000,1100 v 2500 l 1300,-300 v 0 c -165.68,0 -300,-134.32 -300,-300 V 1700 c 0,-165.68 134.32,-300 300,-300"
       style="fill:#000000;fill-opacity:1;fill-rule:nonzero;stroke:none"
       transform="matrix(0.13333333,0,0,-0.13333333,0,613.33333)" />
    <path
       id="path20"
       d="m 5200,3600 c 0,220.91 179.09,400 400,400 220.91,0 400,-179.09 400,-400 0,-220.91 -179.09,-400 -400,-400 -220.91,0 -400,179.09 -400,400"
       style="fill:#000000;fill-opacity:1;fill-rule:nonzero;stroke:none"
       transform="matrix(0.13333333,0,0,-0.13333333,0,613.33333)"
       clip-path="url(#clipPath21)" />
    <path
       id="path22"
       d="m 4300,3300 h 1200 v 600 H 4300 Z"
       style="fill:#000000;fill-opacity:1;fill-rule:nonzero;stroke:none"
       transform="matrix(0.13333333,0,0,-0.13333333,0,613.33333)"
       clip-path="url(#clipPath23)" />
    <path
       id="path24"
       d="m 4000,3600 c 0,165.68 134.32,300 300,300 165.68,0 300,-134.32 300,-300 0,-165.68 -134.32,-300 -300,-300 -165.68,0 -300,134.32 -300,300"
       style="fill:#000000;fill-opacity:1;fill-rule:nonzero;stroke:none"
       transform="matrix(0.13333333,0,0,-0.13333333,0,613.33333)" />
    <path
       id="path25"
       d="m 3300,1200 v 2000 l 400,200 V 1400"
       style="fill:#000000;fill-opacity:1;fill-rule:nonzero;stroke:none"
       transform="matrix(0.13333333,0,0,-0.13333333,0,613.33333)" />
  </g>
</svg>
